<?xml version="1.0" encoding="UTF-8"?>
<svg width="287px" height="75px" viewBox="0 0 287 75" version="1.1" xmlns="http://www.w3.org/2000/svg" xmlns:xlink="http://www.w3.org/1999/xlink">
    <!-- Generator: sketchtool 51.3 (57544) - http://www.bohemiancoding.com/sketch -->
    <title>22212EC7-23D0-4F30-A49E-EFF0D6D35A36</title>
    <desc>Created with sketchtool.</desc>
    <defs>
        <polygon id="path-1" points="0.000407092199 0.348684211 68.3125135 0.348684211 68.3125135 74.3421053 0.000407092199 74.3421053"></polygon>
        <polygon id="path-3" points="0.0176406619 0.232763158 6.04396217 0.232763158 6.04396217 6.21631579 0.0176406619 6.21631579"></polygon>
    </defs>
    <g id="Design-–-Default" stroke="none" stroke-width="1" fill="none" fill-rule="evenodd">
        <g id="Homepage" transform="translate(-232.000000, -132.000000)">
            <g id="HEADER---SECT">
                <g id="ICN/Asset-Guru-Logo-White" transform="translate(232.000000, 132.000000)">
                    <g id="Group-3" stroke-width="1" transform="translate(0.000000, 0.309211)">
                        <mask id="mask-2" fill="white">
                            <use xlink:href="#path-1"></use>
                        </mask>
                        <g id="Clip-2"></g>
                        <path d="M14.3843314,26.1417763 C12.2979839,26.1417763 10.6071943,27.7819079 10.6071943,29.8049342 C10.6071943,31.8279605 12.2979839,33.4680921 14.3843314,33.4680921 C16.470679,33.4680921 18.162147,31.8279605 18.162147,29.8049342 C18.162147,27.7819079 16.470679,26.1417763 14.3843314,26.1417763 M46.3722794,26.1417763 C44.2859319,26.1417763 42.5944638,27.7819079 42.5944638,29.8049342 C42.5944638,31.8279605 44.2859319,33.4680921 46.3722794,33.4680921 C48.4593054,33.4680921 50.150095,31.8279605 50.150095,29.8049342 C50.150095,27.7819079 48.4593054,26.1417763 46.3722794,26.1417763 M50.150095,46.8746711 C42.5266151,46.8746711 36.3245655,40.8601974 36.3245655,33.4680921 C36.3245655,26.0759868 42.5266151,20.0621711 50.150095,20.0621711 C57.7735749,20.0621711 63.9763031,26.0759868 63.9763031,33.4680921 C63.9763031,40.8601974 57.7735749,46.8746711 50.150095,46.8746711 M18.162147,46.8746711 C10.5386671,46.8746711 4.33593901,40.8601974 4.33593901,33.4680921 C4.33593901,26.0759868 10.5386671,20.0621711 18.162147,20.0621711 C25.7863054,20.0621711 31.9876766,26.0759868 31.9876766,33.4680921 C31.9876766,40.8601974 25.7863054,46.8746711 18.162147,46.8746711 M50.150095,15.8569079 C44.6197475,15.8569079 39.6586506,18.2680921 36.3245655,22.0615132 L36.3245655,17.9595395 C36.3245655,8.24901316 28.1766151,0.348355263 18.162147,0.348355263 C13.310965,0.348355263 8.74949693,2.18059211 5.31974515,5.50690789 C4.47299338,6.32796053 4.47299338,7.65888158 5.31974515,8.47993421 C6.16649693,9.30098684 7.53907612,9.30098684 8.3858279,8.47993421 C10.9973243,5.94769737 14.4691423,4.55361842 18.162147,4.55361842 C25.7863054,4.55361842 31.9876766,10.5674342 31.9876766,17.9595395 L31.9876766,22.0615132 C28.6535915,18.2680921 23.6938515,15.8569079 18.162147,15.8569079 C8.14767896,15.8569079 0.000407092199,23.7575658 0.000407092199,33.4680921 C0.000407092199,43.1786184 8.14767896,51.0792763 18.162147,51.0792763 C25.0677877,51.0792763 31.0852889,47.3220395 34.1567995,41.80625 C37.2269532,47.3220395 43.2444544,51.0792763 50.150095,51.0792763 C55.681121,51.0792763 60.642218,48.66875 63.9763031,44.8746711 L63.9763031,48.9766447 C63.9763031,54.6292763 61.7060856,59.9424342 57.5842771,63.9398026 C53.4624686,67.9365132 47.9823291,70.1371711 42.1534473,70.1371711 C36.323887,70.1371711 30.8437475,67.9358553 26.7226175,63.9391447 C25.8751872,63.11875 24.5019296,63.1180921 23.6558563,63.9391447 C22.8091045,64.7601974 22.8091045,66.0917763 23.6558563,66.9128289 C28.5959201,71.7036184 35.1657097,74.3424342 42.1534473,74.3424342 C49.1411849,74.3424342 55.7096175,71.7036184 60.6503598,66.9128289 C65.5917806,62.1220395 68.3125135,55.7523026 68.3125135,48.9766447 L68.3125135,33.4680921 C68.3125135,23.7575658 60.1652416,15.8569079 50.150095,15.8569079" id="Fill-1" fill="#FFFFFF" mask="url(#mask-2)"></path>
                    </g>
                    <path d="M95.1276087,33.1090132 L95.1276087,37.4905921 C95.1276087,42.0123026 90.3191714,44.0359868 85.5541572,44.0359868 C83.4047104,44.0359868 79.3405733,43.1313816 79.3405733,39.7063816 C79.3405733,36.7853289 81.5449775,35.4373026 87.1981312,34.8971711 C89.9955331,34.6682237 93.1267506,34.4116447 95.1276087,33.1090132 Z M98.1794433,45.4813816 C97.829344,44.6326974 97.5342021,43.0228289 97.5342021,41.9655921 L97.5342021,29.3215132 C97.5342021,27.1340132 96.6596324,25.3373026 95.0048026,24.1274342 C93.3574362,22.9215132 91.0214054,22.3103289 88.0632021,22.3103289 C82.7587908,22.3103289 79.0983534,24.7070395 78.0202376,28.8859868 L77.9042163,29.3366447 L80.3610177,29.3366447 L80.4437931,29.0826974 C81.3943534,26.1504605 84.0289184,24.6004605 88.0632021,24.6004605 C93.9015827,24.6004605 95.1276087,27.1682237 95.1276087,29.3215132 C95.1276087,31.7504605 91.8905473,32.2353289 86.9538759,32.6971711 C84.8213913,32.8846711 82.1094787,33.2419079 80.0516277,34.3425658 C77.894039,35.4971711 76.798961,37.3169079 76.798961,39.7498026 C76.798961,44.2984868 81.3373605,46.3695395 85.5541572,46.3695395 C89.634578,46.3695395 93.0602589,45.1294079 95.1411785,42.9320395 C95.1941005,44.0550658 95.4078239,44.9879605 95.791169,45.7715132 L95.8922636,45.97875 L98.3850248,45.97875 L98.1794433,45.4813816 Z" id="Fill-4" fill="#FFFFFF"></path>
                    <path d="M121.175132,39.2546053 C120.939697,34.5138158 116.338876,33.1980263 111.398134,32.4815789 C106.517099,31.8177632 104.187853,31.0894737 104.147143,28.7506579 C104.132895,27.8960526 104.48503,27.0881579 105.167588,26.4151316 C106.365796,25.2342105 108.437895,24.5572368 110.853309,24.5572368 C114.741718,24.5572368 117.28333,26.1059211 118.20268,29.0361842 L118.282742,29.2934211 L120.736829,29.2934211 L120.627593,28.8467105 C119.599685,24.6315789 116.112262,22.3105263 110.808529,22.3105263 C108.039623,22.3105263 105.697486,22.9953947 104.03655,24.2914474 C102.527595,25.4690789 101.69577,27.0552632 101.69577,28.7638158 C101.790758,33.4578947 106.841415,34.1723684 110.900125,34.7467105 L111.024288,34.7644737 C116.482716,35.5210526 118.641661,36.8 118.724437,39.3269737 L118.725115,39.3421053 C118.805855,40.3980263 118.444222,41.3953947 117.70942,42.1480263 C116.393155,43.4664474 114.08155,44.2532895 111.525011,44.2532895 C106.707753,44.2532895 103.638278,42.3953947 102.883801,39.0210526 L102.819344,38.7348684 L100.420214,38.7348684 L100.490777,39.1559211 C101.258824,43.7546053 105.400309,46.5006579 111.57047,46.5006579 C114.84824,46.5006579 117.722311,45.5098684 119.457881,43.7815789 C120.598418,42.6309211 121.224661,40.9835526 121.175132,39.2546053" id="Fill-6" fill="#FFFFFF"></path>
                    <path d="M144.612787,39.2546053 C144.37803,34.5138158 139.776531,33.1980263 134.835789,32.4815789 C129.955432,31.8177632 127.626186,31.0894737 127.584798,28.7506579 C127.57055,27.8960526 127.922685,27.0881579 128.605921,26.4151316 C129.803451,25.2342105 131.876229,24.5572368 134.290964,24.5572368 C138.179373,24.5572368 140.720985,26.1059211 141.640335,29.0361842 L141.721075,29.2934211 L144.174484,29.2934211 L144.065248,28.8467105 C143.03734,24.6315789 139.549917,22.3105263 134.246184,22.3105263 C131.477957,22.3105263 129.13582,22.9953947 127.474205,24.2914474 C125.96525,25.4690789 125.133425,27.0552632 125.133425,28.7638158 C125.229091,33.4578947 130.279749,34.1723684 134.337779,34.7467105 L134.461943,34.7644737 C139.92037,35.5210526 142.079995,36.8 142.162091,39.3269737 L142.163448,39.3421053 C142.244188,40.3986842 141.881876,41.3960526 141.147075,42.1480263 C139.831489,43.4664474 137.519883,44.2532895 134.962666,44.2532895 C130.145408,44.2532895 127.075933,42.3953947 126.321456,39.0210526 L126.257678,38.7348684 L123.857869,38.7348684 L123.928432,39.1559211 C124.696479,43.7546053 128.837964,46.5006579 135.008125,46.5006579 C138.285895,46.5006579 141.159966,45.5098684 142.896214,43.7815789 C144.036751,42.6309211 144.662316,40.9835526 144.612787,39.2546053" id="Fill-8" fill="#FFFFFF"></path>
                    <path d="M149.464851,32.4346711 C150.369952,27.9201974 154.190513,24.6873026 158.699059,24.6873026 C163.189964,24.6873026 167.026808,27.9201974 167.974654,32.4346711 L149.464851,32.4346711 Z M170.590222,34.4109868 C170.639751,31.2820395 169.256995,28.0228289 166.890432,25.6925658 C164.675172,23.5116447 161.766498,22.3103289 158.699059,22.3103289 C152.14216,22.3103289 146.808574,27.7748026 146.808574,34.4919079 C146.808574,41.2254605 152.149624,46.5004605 158.968418,46.5004605 C161.735288,46.5004605 164.098458,45.82875 165.992794,44.5030921 C167.872881,43.1886184 169.247496,41.2616447 170.079321,38.7754605 L170.238087,38.3004605 L167.713437,38.3004605 L167.623877,38.5386184 C166.207874,42.2728289 163.295808,44.1669079 158.968418,44.1669079 C156.339959,44.1669079 153.896728,43.1826974 152.087881,41.3965132 C150.338742,39.6695395 149.329832,37.3274342 149.223988,34.7682237 L170.584794,34.7682237 L170.590222,34.4109868 Z" id="Fill-10" fill="#FFFFFF"></path>
                    <path d="M183.123505,25.2088158 L183.123505,22.8752632 L176.894316,22.8752632 L176.894316,18.0956579 L174.487722,18.0956579 L174.487722,22.8752632 L171.351077,22.8752632 L171.351077,25.2088158 L174.487722,25.2088158 L174.487722,37.8811842 C174.487722,40.2989474 175.154675,42.3325 176.414626,43.7634211 C177.714607,45.2384211 179.597408,46.0186842 181.860162,46.0186842 C182.160053,46.0186842 182.4708,46.0048684 182.782904,45.9772368 L183.123505,45.9476316 L183.123505,43.7601316 L182.734053,43.7759211 C182.600391,43.7811842 182.470122,43.7838158 182.341888,43.7838158 C177.839448,43.7838158 176.894316,40.5739474 176.894316,37.8811842 L176.894316,25.2088158 L183.123505,25.2088158 Z" id="Fill-12" fill="#FFFFFF"></path>
                    <path d="M213.477181,34.4922368 C213.477181,40.0981579 209.506675,44.1665789 204.037392,44.1665789 C198.807614,44.1665789 194.552822,39.8264474 194.552822,34.4922368 C194.552822,29.0856579 198.807614,24.6876316 204.037392,24.6876316 C209.506675,24.6876316 213.477181,28.8106579 213.477181,34.4922368 Z M213.477181,22.8751316 L213.477181,27.1521053 C211.381335,24.0968421 207.944798,22.31 204.037392,22.31 C197.480493,22.31 192.146907,27.7751316 192.146907,34.4922368 C192.146907,41.1376316 197.480493,46.5435526 204.037392,46.5435526 C207.938013,46.5435526 211.375229,44.7685526 213.477181,41.7323684 L213.477181,45.0073684 C213.477181,50.8317105 209.807245,54.5948684 204.126952,54.5948684 C199.885051,54.5948684 196.730765,52.5928947 195.473529,49.1027632 L195.385326,48.8593421 L192.872888,48.8593421 L193.013335,49.3244737 C194.449013,54.0856579 198.604068,56.9290789 204.126952,56.9290789 C211.158791,56.9290789 215.883775,52.1376316 215.883775,45.0073684 L215.883775,22.8751316 L213.477181,22.8751316 Z" id="Fill-14" fill="#FFFFFF"></path>
                    <path d="M237.145386,22.8753289 L237.145386,36.7516447 C237.145386,38.8424342 236.378696,40.7338816 234.987119,42.0779605 C233.592828,43.4246711 231.627251,44.1667763 229.453379,44.1667763 C225.022859,44.1667763 221.807509,41.0483553 221.807509,36.7516447 L221.807509,22.8753289 L219.400237,22.8753289 L219.400237,36.7516447 C219.400237,42.4003289 223.62789,46.5003289 229.453379,46.5003289 C232.64566,46.5003289 235.384034,45.2759868 237.145386,43.1016447 L237.145386,45.9786184 L239.552658,45.9786184 L239.552658,22.8753289 L237.145386,22.8753289 Z" id="Fill-16" fill="#FFFFFF"></path>
                    <path d="M254.839716,22.3998684 C251.698322,22.0518421 248.845962,22.8603947 246.699908,24.7103947 C246.381019,24.9978947 246.08452,25.3248684 245.805662,25.6972368 L245.805662,22.8755263 L243.35361,22.8755263 L243.35361,45.9788158 L245.805662,45.9788158 L245.805662,32.1025 C245.805662,29.8268421 246.690409,27.7557895 248.235324,26.4202632 L248.24618,26.4103947 C249.719175,25.0268421 252.073525,24.3689474 254.764404,24.5992105 L255.170818,24.6340789 L255.170818,22.4367105 L254.839716,22.3998684 Z" id="Fill-18" fill="#FFFFFF"></path>
                    <path d="M275.797298,22.8753289 L275.797298,36.7516447 C275.797298,38.8424342 275.030607,40.7338816 273.638352,42.0779605 C272.244061,43.4246711 270.279163,44.1667763 268.105291,44.1667763 C263.674092,44.1667763 260.458742,41.0483553 260.458742,36.7516447 L260.458742,22.8753289 L258.05147,22.8753289 L258.05147,36.7516447 C258.05147,42.4003289 262.279801,46.5003289 268.105291,46.5003289 C271.297572,46.5003289 274.035945,45.2759868 275.797298,43.1016447 L275.797298,45.9786184 L278.203891,45.9786184 L278.203891,22.8753289 L275.797298,22.8753289 Z" id="Fill-20" fill="#FFFFFF"></path>
                    <path d="M188.9589,42.3792763 C187.787153,42.3792763 186.833879,43.3036184 186.833879,44.4398026 C186.833879,45.5759868 187.787153,46.5003289 188.9589,46.5003289 C190.131326,46.5003289 191.0846,45.5759868 191.0846,44.4398026 C191.0846,43.3036184 190.131326,42.3792763 188.9589,42.3792763" id="Fill-22" fill="#FFFFFF"></path>
                    <g id="Group-26" stroke-width="1" transform="translate(280.893617, 22.019737)">
                        <mask id="mask-4" fill="white">
                            <use xlink:href="#path-3"></use>
                        </mask>
                        <g id="Clip-25"></g>
                        <path d="M3.0945792,3.13473684 C3.4073617,3.13473684 3.61022931,2.93802632 3.61022931,2.60973684 C3.61022931,2.29 3.4073617,2.10907895 3.0945792,2.10907895 L2.58707092,2.10907895 L2.58707092,3.13473684 L3.0945792,3.13473684 Z M1.98660993,1.66697368 L3.21263593,1.66697368 C3.81309693,1.66697368 4.21815366,2.03605263 4.21815366,2.60973684 C4.21815366,3.08539474 3.8979078,3.36434211 3.63533333,3.42947368 L3.63533333,3.44592105 C3.63533333,3.44592105 3.66925768,3.47815789 3.74524823,3.61763158 L4.35385106,4.75710526 L3.6943617,4.75710526 L3.10339953,3.56039474 L2.58707092,3.56039474 L2.58707092,4.75710526 L1.98660993,4.75710526 L1.98660993,1.66697368 Z M3.01858865,5.65842105 C4.37963357,5.65842105 5.42721749,4.59328947 5.42721749,3.22486842 C5.42721749,1.85578947 4.37963357,0.79 3.01858865,0.79 C1.67450591,0.79 0.634385343,1.85578947 0.634385343,3.22486842 C0.634385343,4.59328947 1.67450591,5.65842105 3.01858865,5.65842105 Z M3.01858865,0.232763158 C4.70055792,0.232763158 6.04464066,1.56039474 6.04464066,3.22486842 C6.04464066,4.88868421 4.70055792,6.21631579 3.01858865,6.21631579 C1.35290307,6.21631579 0.0176406619,4.88868421 0.0176406619,3.22486842 C0.0176406619,1.56039474 1.35290307,0.232763158 3.01858865,0.232763158 Z" id="Fill-24" fill="#FFFFFF" mask="url(#mask-4)"></path>
                    </g>
                </g>
            </g>
        </g>
    </g>
</svg>