<?xml version="1.0" encoding="UTF-8"?>
<svg width="41px" height="41px" viewBox="0 0 41 41" version="1.1" xmlns="http://www.w3.org/2000/svg" xmlns:xlink="http://www.w3.org/1999/xlink">
    <!-- Generator: sketchtool 51.3 (57544) - http://www.bohemiancoding.com/sketch -->
    <title>EF4D91B5-4588-4038-B4A0-17F2E06CB07E</title>
    <desc>Created with sketchtool.</desc>
    <defs></defs>
    <g id="Design-–-Default" stroke="none" stroke-width="1" fill="none" fill-rule="evenodd" stroke-linecap="round" stroke-linejoin="round">
        <g id="How-it-Works-Copy" transform="translate(-739.000000, -1948.000000)" stroke="#00C7D9">
            <g id="TOP-FEATURES---SECT" transform="translate(0.000000, 1024.000000)">
                <g id="Icons" transform="translate(740.000000, 895.000000)">
                    <g id="Group-01" transform="translate(0.000000, 30.000000)">
                        <g id="ICN/Barcodes">
                            <g id="Group-Copy-3">
                                <path d="M5.08695652,8.47826087 L5.08695652,21.1956522" id="Shape" stroke-width="1.5"></path>
                                <path d="M10.173913,8.47826087 L10.173913,16.1086957" id="Shape" stroke-width="1.5"></path>
                                <path d="M20.3478261,8.47826087 L20.3478261,13.5652174" id="Shape" stroke-width="1.5"></path>
                                <path d="M25.4347826,8.47826087 L25.4347826,12.2934783" id="Shape" stroke-width="1.5"></path>
                                <path d="M30.5217391,8.47826087 L30.5217391,13.5652174" id="Shape" stroke-width="1.5"></path>
                                <path d="M15.2608696,8.47826087 L15.2608696,16.1086957" id="Shape" stroke-width="1.5"></path>
                                <path d="M10.173913,20.3478261 L12.7173913,20.3478261" id="Shape" stroke-width="1.5"></path>
                                <path d="M5.08695652,0 L2.60621739,0 C1.16684327,1.88255209e-16 1.88255209e-16,1.16684327 0,2.60621739 L0,5.08695652" id="Shape" stroke-width="1.5"></path>
                                <path d="M35.6086957,5.08695652 L35.6086957,2.60621739 C35.6086957,1.16684327 34.4418524,1.88255209e-16 33.0024783,0 L30.5217391,0" id="Shape" stroke-width="1.5"></path>
                                <path d="M0,23.7391304 L0,26.2198696 C5.64765626e-16,27.6592437 1.16684327,28.826087 2.60621739,28.826087 L5.08695652,28.826087" id="Shape" stroke-width="1.5"></path>
                                <circle id="Oval" stroke-width="1.5" cx="25.8586957" cy="25.8586957" r="8.90217391"></circle>
                                <path d="M38.6405217,38.6405217 L32.2173913,32.2173913" id="Shape" stroke-width="1.5"></path>
                            </g>
                        </g>
                    </g>
                </g>
            </g>
        </g>
    </g>
</svg>