<?xml version="1.0" encoding="UTF-8"?>
<svg width="64px" height="74px" viewBox="0 0 64 74" version="1.1" xmlns="http://www.w3.org/2000/svg" xmlns:xlink="http://www.w3.org/1999/xlink">
    <!-- Generator: sketchtool 51.3 (57544) - http://www.bohemiancoding.com/sketch -->
    <title>95FB7602-FB73-4FBC-85C2-FE78123D45A1</title>
    <desc>Created with sketchtool.</desc>
    <defs></defs>
    <g id="Design-–-Default" stroke="none" stroke-width="1" fill="none" fill-rule="evenodd" stroke-linecap="round" stroke-linejoin="round">
        <g id="Homepage" transform="translate(-250.000000, -4789.000000)" stroke="#00C7D9">
            <g id="BUILT-FOR---SECT" transform="translate(0.000000, 4156.000000)">
                <g id="Group-04" transform="translate(242.000000, 632.000000)">
                    <g id="ICN/Finance" transform="translate(2.000000, 0.000000)">
                        <g id="accounting-invoice">
                            <path d="M68.875,68.875 C68.875,71.4983526 66.7483526,73.625 64.125,73.625 L11.875,73.625 C9.25164744,73.625 7.125,71.4983526 7.125,68.875 L7.125,7.125 C7.125,4.50164744 9.25164744,2.375 11.875,2.375 L45.5335,2.375 C46.7923995,2.37526879 47.9997051,2.87527555 48.8901667,3.76516667 L67.4848333,22.3598333 C68.3747245,23.2502949 68.8747312,24.4576005 68.875,25.7165 L68.875,68.875 Z" id="Shape" stroke-width="1.5"></path>
                            <path d="M68.875,26.125 L49.875,26.125 C47.2516474,26.125 45.125,23.9983526 45.125,21.375 L45.125,2.375" id="Shape" stroke-width="1.5"></path>
                            <path d="M17.8663333,29.5893333 C19.2571138,31.4186888 21.4538834,32.4532278 23.75,32.3601667 C27.3568333,32.3601667 30.2828333,30.1656667 30.2828333,27.4613333 C30.2828333,24.757 27.3568333,22.5656667 23.75,22.5656667 C20.1431667,22.5656667 17.2203333,20.3711667 17.2203333,17.6636667 C17.2203333,14.9561667 20.1431667,12.7648333 23.75,12.7648333 C26.0461166,12.6717722 28.2428862,13.7063112 29.6336667,15.5356667" id="Shape" stroke-width="1.5"></path>
                            <path d="M23.75,32.3601667 L23.75,35.625" id="Shape" stroke-width="1.5"></path>
                            <path d="M23.75,9.5 L23.75,12.7648333" id="Shape" stroke-width="1.5"></path>
                            <rect id="Rectangle-path" stroke-width="1.5" x="16.625" y="45.125" width="42.75" height="19" rx="0.5"></rect>
                            <path d="M16.625,54.625 L59.375,54.625" id="Shape" stroke-width="1.5"></path>
                            <path d="M30.875,45.125 L30.875,64.125" id="Shape" stroke-width="1.5"></path>
                            <path d="M45.125,45.125 L45.125,64.125" id="Shape" stroke-width="1.5"></path>
                        </g>
                    </g>
                </g>
            </g>
        </g>
    </g>
</svg>