<?xml version="1.0" encoding="UTF-8"?>
<svg width="74px" height="74px" viewBox="0 0 74 74" version="1.1" xmlns="http://www.w3.org/2000/svg" xmlns:xlink="http://www.w3.org/1999/xlink">
    <!-- Generator: sketchtool 51.3 (57544) - http://www.bohemiancoding.com/sketch -->
    <title>CE4F49D1-9876-45BE-8CB0-A1F428BA29D2</title>
    <desc>Created with sketchtool.</desc>
    <defs></defs>
    <g id="Design-–-Default" stroke="none" stroke-width="1" fill="none" fill-rule="evenodd" stroke-linecap="round" stroke-linejoin="round">
        <g id="Homepage" transform="translate(-907.000000, -4444.000000)" stroke="#00C7D9">
            <g id="BUILT-FOR---SECT" transform="translate(0.000000, 4156.000000)">
                <g id="Group-03" transform="translate(906.000000, 287.000000)">
                    <g id="ICN/HR-Lrg">
                        <g id="Group">
                            <circle id="Oval" stroke-width="1.5" cx="19" cy="11.875" r="9.5"></circle>
                            <path d="M30.6343333,30.875 C25.8533278,26.1911766 18.7298068,24.8310784 12.5594569,27.4239529 C6.38910705,30.0168274 2.37529303,36.0570025 2.375,42.75 L2.375,49.875 L9.5,49.875 L11.875,73.625 L26.125,73.625 L27.7748333,57.1076667" id="Shape" stroke-width="1.5"></path>
                            <circle id="Oval" stroke-width="1.5" cx="54.625" cy="52.25" r="4.75"></circle>
                            <path d="M58.6593333,33.8833333 L60.059,38.4845 C60.5369056,40.0686951 62.1607927,41.0114633 63.7735,40.641 L68.438,39.558 C70.2522751,39.1492529 72.1211549,39.9704508 73.0471346,41.5832837 C73.9731143,43.1961165 73.7400479,45.22411 72.4723333,46.5848333 L69.2106667,50.103 C68.0803078,51.3184818 68.0803078,53.2005182 69.2106667,54.416 L72.4723333,57.9341667 C73.7420514,59.293957 73.9761941,61.3229509 73.0495596,62.9361968 C72.1229251,64.5494427 70.2523194,65.3694874 68.438,64.9578333 L63.7735,63.878 C62.1605422,63.5058777 60.5355891,64.4492648 60.059,66.0345 L58.6593333,70.6166667 C58.1232148,72.3975313 56.483229,73.6165117 54.6234167,73.6165117 C52.7636043,73.6165117 51.1236186,72.3975313 50.5875,70.6166667 L49.1878333,66.0186667 C48.7112443,64.4334314 47.0862911,63.4900443 45.4733333,63.8621667 L40.8088333,64.942 C38.994514,65.3536541 37.1239083,64.5336094 36.1972738,62.9203635 C35.2706393,61.3071176 35.5047819,59.2781237 36.7745,57.9183333 L40.0361667,54.4001667 C41.1665256,53.1846849 41.1665256,51.3026484 40.0361667,50.0871667 L36.7745,46.569 C35.5067854,45.2082767 35.273719,43.1802832 36.1996987,41.5674503 C37.1256785,39.9546175 38.9945583,39.1334196 40.8088333,39.5421667 L45.4733333,40.6251667 C47.0860406,40.99563 48.7099277,40.0528618 49.1878333,38.4686667 L50.5875,33.8675 C51.1271023,32.0876774 52.7694823,30.8719035 54.6293011,30.8755517 C56.4891198,30.8791998 58.1267176,32.1014075 58.6593333,33.8833333 Z" id="Shape" stroke-width="1.5"></path>
                        </g>
                    </g>
                </g>
            </g>
        </g>
    </g>
</svg>