<?xml version="1.0" encoding="UTF-8"?>
<svg width="91px" height="64px" viewBox="0 0 91 64" version="1.1" xmlns="http://www.w3.org/2000/svg" xmlns:xlink="http://www.w3.org/1999/xlink">
    <!-- Generator: sketchtool 51.3 (57544) - http://www.bohemiancoding.com/sketch -->
    <title>1BB5E359-E3E5-4171-B753-998E1D12658A</title>
    <desc>Created with sketchtool.</desc>
    <defs></defs>
    <g id="Design-–-Default" stroke="none" stroke-width="1" fill="none" fill-rule="evenodd">
        <g id="Generic-Page-01" transform="translate(-675.000000, -5887.000000)" fill="#E6E6E6">
            <g id="3-Column-Image-+-Text" transform="translate(242.000000, 5813.000000)">
                <g id="Group-2" transform="translate(332.000000, 0.000000)">
                    <g id="Assets/Image-Placholder-Copy-10">
                        <g id="Assets/Image-Placholder-Icon" transform="translate(101.269871, 74.342532)">
                            <path d="M50.5590594,61.2 L19.824505,29.40075 C19.4890099,29.05335 18.8848515,29.05335 18.5493564,29.40075 L1.78217822,46.74915 L1.78217822,1.8 L88.2178218,1.8 L88.2178218,47.30895 L63.7837129,22.02795 C63.4482178,21.681 62.8436139,21.681 62.5085644,22.02795 L41.4031188,43.86465 C41.0591584,44.22015 41.0662871,44.78985 41.4182673,45.13725 C41.7702475,45.4842 42.3343069,45.4779 42.6782673,45.12195 L63.1461386,23.94495 L88.0805941,49.74345 C88.1229208,49.78755 88.1692574,49.8258 88.2178218,49.8591 L88.2178218,61.2 L50.5590594,61.2 L50.5590594,61.2 Z M1.78217822,49.32585 L19.1869307,31.31775 L48.0684653,61.2 L1.78217822,61.2 L1.78217822,49.32585 L1.78217822,49.32585 Z M89.1089109,0 C89.6007921,0 90,0.4032 90,0.9 L90,62.1 C90,62.5968 89.6007921,63 89.1089109,63 L0.891089109,63 C0.398762376,63 0,62.5968 0,62.1 L0,0.9 C0,0.4032 0.398762376,0 0.891089109,0 L89.1089109,0 Z M45.2891584,20.707515 C45.2891584,16.334865 41.8410891,12.777615 37.6035149,12.777615 C33.3659406,12.777615 29.9178713,16.334865 29.9178713,20.707515 C29.9178713,25.080165 33.3659406,28.637415 37.6035149,28.637415 C41.8410891,28.637415 45.2891584,25.080165 45.2891584,20.707515 Z M37.6035149,26.837415 C34.3483663,26.837415 31.7000495,24.087465 31.7000495,20.707515 C31.7000495,17.327565 34.3483663,14.577615 37.6035149,14.577615 C40.8586634,14.577615 43.5069802,17.327565 43.5069802,20.707515 C43.5069802,24.087465 40.8586634,26.837415 37.6035149,26.837415 Z" id="Icon"></path>
                        </g>
                    </g>
                </g>
            </g>
        </g>
    </g>
</svg>