<?xml version="1.0" encoding="UTF-8"?>
<svg width="74px" height="71px" viewBox="0 0 74 71" version="1.1" xmlns="http://www.w3.org/2000/svg" xmlns:xlink="http://www.w3.org/1999/xlink">
    <!-- Generator: sketchtool 51.3 (57544) - http://www.bohemiancoding.com/sketch -->
    <title>84439EDD-0833-4D01-96DB-67BD0821D1C8</title>
    <desc>Created with sketchtool.</desc>
    <defs></defs>
    <g id="Design-–-Default" stroke="none" stroke-width="1" fill="none" fill-rule="evenodd" stroke-linecap="round" stroke-linejoin="round">
        <g id="Homepage" transform="translate(-575.000000, -4444.000000)" stroke="#00C7D9">
            <g id="BUILT-FOR---SECT" transform="translate(0.000000, 4156.000000)">
                <g id="Group-02" transform="translate(574.000000, 287.000000)">
                    <g id="ICN/IT-Lrg">
                        <g id="Group">
                            <path d="M17.8156667,23.94 C17.3350817,23.9387697 16.9011051,24.2157404 16.7163045,24.6416303 C16.5315039,25.0675203 16.6323182,25.5583524 16.9716904,25.8850207 C17.3110625,26.2116891 17.8220749,26.3097811 18.2662021,26.1335104 C18.7103294,25.9572396 18.9999983,25.5413632 19,25.08 C19,24.4503954 18.4683381,23.94 17.8125,23.94" id="Shape" stroke-width="1.5"></path>
                            <path d="M42.7531667,25.08 L47.5031667,25.08" id="Shape" stroke-width="1.5"></path>
                            <path d="M57.0031667,25.08 L61.7531667,25.08" id="Shape" stroke-width="1.5"></path>
                            <path d="M17.8156667,42.18 C17.3350817,42.1787697 16.9011051,42.4557404 16.7163045,42.8816303 C16.5315039,43.3075203 16.6323182,43.7983524 16.9716904,44.1250207 C17.3110625,44.4516891 17.8220749,44.5497811 18.2662021,44.3735104 C18.7103294,44.1972396 18.9999983,43.7813632 19,43.32 C19,42.6903954 18.4683381,42.18 17.8125,42.18" id="Shape" stroke-width="1.5"></path>
                            <path d="M42.7531667,43.32 L47.5031667,43.32" id="Shape" stroke-width="1.5"></path>
                            <path d="M57.0031667,43.32 L61.7531667,43.32" id="Shape" stroke-width="1.5"></path>
                            <path d="M38.0031667,52.44 L38.0031667,70.68" id="Shape" stroke-width="1.5"></path>
                            <path d="M14.2531667,70.68 L61.7531667,70.68" id="Shape" stroke-width="1.5"></path>
                            <path d="M72.4406667,68.4 C71.7848285,68.4 71.2531667,68.9103954 71.2531667,69.54 C71.2531667,70.1696046 71.7848285,70.68 72.4406667,70.68 C73.0965048,70.68 73.6281667,70.1696046 73.6281667,69.54 C73.6281667,68.9103954 73.0965048,68.4 72.4406667,68.4" id="Shape" stroke-width="1.5"></path>
                            <path d="M3.61,68.4 C2.95416186,68.4 2.4225,68.9103954 2.4225,69.54 C2.4225,70.1696046 2.95416186,70.68 3.61,70.68 C4.26583814,70.68 4.7975,70.1696046 4.7975,69.54 C4.7975,68.9103954 4.26583814,68.4 3.61,68.4" id="Shape" stroke-width="1.5"></path>
                            <path d="M73.6281667,43.32 C73.6281667,48.3568369 69.3748718,52.44 64.1281667,52.44 L11.8781667,52.44 C6.63146154,52.44 2.37816667,48.3568369 2.37816667,43.32 C2.37816667,38.2831631 6.63146154,34.2 11.8781667,34.2 L64.1281667,34.2 C66.6477233,34.2 69.0640855,35.1608544 70.8456811,36.8711862 C72.6272767,38.5815179 73.6281667,40.9012256 73.6281667,43.32 Z" id="Shape" stroke-width="1.5"></path>
                            <path d="M73.6281667,25.08 C73.6281667,30.1168369 69.3748718,34.2 64.1281667,34.2 L11.8781667,34.2 C6.63146154,34.2 2.37816667,30.1168369 2.37816667,25.08 C2.37816667,20.0431631 6.63146154,15.96 11.8781667,15.96 L64.1281667,15.96 C66.6477233,15.96 69.0640855,16.9208544 70.8456811,18.6311862 C72.6272767,20.3415179 73.6281667,22.6612256 73.6281667,25.08 Z" id="Shape" stroke-width="1.5"></path>
                            <path d="M4.05016667,19.912 L10.1808333,9.3176 C12.6939355,4.97393685 17.4627747,2.27991847 22.6385,2.28 L53.3551667,2.28 C58.5308919,2.27991847 63.2997312,4.97393685 65.8128333,9.3176 L71.9561667,19.912" id="Shape" stroke-width="1.5"></path>
                        </g>
                    </g>
                </g>
            </g>
        </g>
    </g>
</svg>