<?xml version="1.0" encoding="UTF-8"?>
<svg width="39px" height="39px" viewBox="0 0 39 39" version="1.1" xmlns="http://www.w3.org/2000/svg" xmlns:xlink="http://www.w3.org/1999/xlink">
    <!-- Generator: sketchtool 51.3 (57544) - http://www.bohemiancoding.com/sketch -->
    <title>90865083-0DBF-4EF2-A1DB-30BC2213435D</title>
    <desc>Created with sketchtool.</desc>
    <defs></defs>
    <g id="Design-–-Default" stroke="none" stroke-width="1" fill="none" fill-rule="evenodd" stroke-linecap="round" stroke-linejoin="round">
        <g id="How-it-Works-Copy" transform="translate(-906.000000, -2042.000000)" stroke="#00C7D9">
            <g id="TOP-FEATURES---SECT" transform="translate(0.000000, 1024.000000)">
                <g id="Icons" transform="translate(740.000000, 895.000000)">
                    <g id="Group-05" transform="translate(166.000000, 123.000000)">
                        <g id="ICN/Mobile">
                            <g id="cloud-phone">
                                <path d="M19.5,32.2985 C19.1634515,32.2985 18.890625,32.5713265 18.890625,32.907875 C18.890625,33.2444235 19.1634515,33.51725 19.5,33.51725 C19.8365485,33.51725 20.109375,33.2444235 20.109375,32.907875 C20.109375,32.5713265 19.8365485,32.2985 19.5,32.2985" id="Shape" stroke-width="1.5"></path>
                                <rect id="Rectangle-path" stroke-width="1.5" x="13.40625" y="18.282875" width="12.1875" height="19.5" rx="1.5"></rect>
                                <path d="M30.44275,25.57425 C33.7726248,25.332594 36.5935802,23.0292075 37.496211,19.814908 C38.3988418,16.6006085 37.1893798,13.1654112 34.4720962,11.2256088 C31.7548126,9.28580635 28.1130279,9.2578171 25.36625,11.155625 C24.2972867,5.45588672 19.3601689,1.29873594 13.5616484,1.21591711 C7.76312791,1.13309827 2.70929712,5.1475508 1.47798717,10.8144348 C0.246677214,16.4813189 3.17894019,22.2310031 8.489,24.561875" id="Shape" stroke-width="1.5"></path>
                            </g>
                        </g>
                    </g>
                </g>
            </g>
        </g>
    </g>
</svg>