<?xml version="1.0" encoding="UTF-8"?>
<svg width="39px" height="39px" viewBox="0 0 39 39" version="1.1" xmlns="http://www.w3.org/2000/svg" xmlns:xlink="http://www.w3.org/1999/xlink">
    <!-- Generator: sketchtool 51.3 (57544) - http://www.bohemiancoding.com/sketch -->
    <title>E178B165-828A-40AA-A6F7-BD406B9DBFA4</title>
    <desc>Created with sketchtool.</desc>
    <defs></defs>
    <g id="Design-–-Default" stroke="none" stroke-width="1" fill="none" fill-rule="evenodd" stroke-linecap="round" stroke-linejoin="round">
        <g id="How-it-Works-Copy" transform="translate(-739.000000, -2140.000000)" stroke="#00C7D9">
            <g id="TOP-FEATURES---SECT" transform="translate(0.000000, 1024.000000)">
                <g id="Icons" transform="translate(740.000000, 895.000000)">
                    <g id="Group-07" transform="translate(0.000000, 222.000000)">
                        <g id="ICN/Multi-language">
                            <g id="conversation-chat-text">
                                <path d="M12.40625,28.25 L7.53125,31.90625 L7.53125,24.59375 L2.65625,24.59375 C1.31005592,24.59375 0.21875,23.5024441 0.21875,22.15625 L0.21875,2.65625 C0.21875,1.31005592 1.31005592,0.21875 2.65625,0.21875 L29.46875,0.21875 C30.8149441,0.21875 31.90625,1.31005592 31.90625,2.65625 L31.90625,9.96875" id="Shape" stroke-width="1.5"></path>
                                <path d="M7.53125,7.53125 L24.59375,7.53125" id="Shape" stroke-width="1.5"></path>
                                <path d="M7.53125,14.84375 L12.40625,14.84375" id="Shape" stroke-width="1.5"></path>
                                <polygon id="Shape" stroke-width="1.5" points="36.78125 29.46875 31.90625 29.46875 31.90625 36.78125 24.59375 29.46875 17.28125 29.46875 17.28125 14.84375 36.78125 14.84375"></polygon>
                                <path d="M31.90625,19.71875 L22.15625,19.71875" id="Shape" stroke-width="1.5"></path>
                                <path d="M31.90625,24.59375 L22.15625,24.59375" id="Shape" stroke-width="1.5"></path>
                            </g>
                        </g>
                    </g>
                </g>
            </g>
        </g>
    </g>
</svg>