<?xml version="1.0" encoding="UTF-8"?>
<svg width="64px" height="74px" viewBox="0 0 64 74" version="1.1" xmlns="http://www.w3.org/2000/svg" xmlns:xlink="http://www.w3.org/1999/xlink">
    <!-- Generator: sketchtool 51.3 (57544) - http://www.bohemiancoding.com/sketch -->
    <title>2B34E321-79F7-4AEE-B170-43B552F8E078</title>
    <desc>Created with sketchtool.</desc>
    <defs></defs>
    <g id="Design-–-Default" stroke="none" stroke-width="1" fill="none" fill-rule="evenodd" stroke-linecap="round" stroke-linejoin="round">
        <g id="Homepage" transform="translate(-250.000000, -4444.000000)" stroke="#00C7D9">
            <g id="BUILT-FOR---SECT" transform="translate(0.000000, 4156.000000)">
                <g id="Group-01" transform="translate(242.000000, 287.000000)">
                    <g id="ICN/Operations-Lrg" transform="translate(2.000000, 0.000000)">
                        <g id="warehouse-package">
                            <path d="M16.6408333,16.5078333 L16.6408333,35.5078333 C16.6408333,36.8195096 17.7041571,37.8828333 19.0158333,37.8828333 L57.0158333,37.8828333 C58.3275096,37.8828333 59.3908333,36.8195096 59.3908333,35.5078333 L59.3908333,16.5078333" id="Shape" stroke-width="1.5"></path>
                            <path d="M59.3908333,16.5078333 L16.6408333,16.5078333 C16.6408333,16.5078333 16.6408333,2.49533333 38.0158333,2.49533333 C57.8645,2.49533333 59.3908333,16.5078333 59.3908333,16.5078333 Z" id="Shape" stroke-width="1.5"></path>
                            <path d="M26.1408333,72.0828333 C26.0948296,72.912471 25.3873831,73.5491728 24.5575,73.5078333 L8.72416667,73.5078333 C7.89428355,73.5491728 7.1868371,72.912471 7.14083333,72.0828333 L7.14083333,60.6828333 C7.1868371,59.8531957 7.89428355,59.2164939 8.72416667,59.2578333 L24.5575,59.2578333 C25.3880122,59.2147213 26.0965264,59.8523841 26.1408333,60.6828333 L26.1408333,72.0828333 Z" id="Shape" stroke-width="1.5"></path>
                            <path d="M16.6408333,59.2578333 L16.6408333,64.0078333" id="Shape" stroke-width="1.5"></path>
                            <path d="M68.8908333,72.0828333 C68.8448296,72.912471 68.1373831,73.5491728 67.3075,73.5078333 L51.4741667,73.5078333 C50.6442835,73.5491728 49.9368371,72.912471 49.8908333,72.0828333 L49.8908333,60.6828333 C49.9368371,59.8531957 50.6442835,59.2164939 51.4741667,59.2578333 L67.3075,59.2578333 C68.1380122,59.2147213 68.8465264,59.8523841 68.8908333,60.6828333 L68.8908333,72.0828333 Z" id="Shape" stroke-width="1.5"></path>
                            <path d="M59.3908333,59.2578333 L59.3908333,64.0078333" id="Shape" stroke-width="1.5"></path>
                            <rect id="Rectangle-path" stroke-width="1.5" x="28.5158333" y="26.0078333" width="19" height="11.875"></rect>
                            <path d="M16.6408333,52.0125 L16.6408333,48.925 C16.6425797,48.0727729 17.3339378,47.3828315 18.1861667,47.3828333 L57.8486667,47.3828333 C58.7003818,47.3828333 59.3908333,48.0732849 59.3908333,48.925 L59.3908333,52.0125" id="Shape" stroke-width="1.5"></path>
                            <path d="M38.0158333,47.3828333 L38.0158333,37.8828333" id="Shape" stroke-width="1.5"></path>
                        </g>
                    </g>
                </g>
            </g>
        </g>
    </g>
</svg>