<?xml version="1.0" encoding="UTF-8"?>
<svg width="78px" height="75px" viewBox="0 0 78 75" version="1.1" xmlns="http://www.w3.org/2000/svg" xmlns:xlink="http://www.w3.org/1999/xlink">
    <!-- Generator: sketchtool 51.3 (57544) - http://www.bohemiancoding.com/sketch -->
    <title>EA13D9A7-59B4-456C-A95D-B13BF7A487E8</title>
    <desc>Created with sketchtool.</desc>
    <defs></defs>
    <g id="Design-–-Default" stroke="none" stroke-width="1" fill="none" fill-rule="evenodd" stroke-linecap="round" stroke-linejoin="round">
        <g id="Homepage" transform="translate(-573.000000, -4787.000000)" stroke="#00C7D9" stroke-width="1.5">
            <g id="BUILT-FOR---SECT" transform="translate(0.000000, 4156.000000)">
                <g id="Group-05" transform="translate(574.000000, 632.000000)">
                    <g id="Group-Copy-4">
                        <g id="performance-increase-1">
                            <path d="M0.5,72.4 L75.5,72.4" id="Shape"></path>
                            <path d="M18,53.2 L8,53.2 C6.61928813,53.2 5.5,54.2745166 5.5,55.6 L5.5,72.4 L20.5,72.4 L20.5,55.6 C20.5,54.2745166 19.3807119,53.2 18,53.2 Z" id="Shape"></path>
                            <path d="M43,29.2 L33,29.2 C31.6192881,29.2 30.5,30.2745166 30.5,31.6 L30.5,72.4 L45.5,72.4 L45.5,31.6 C45.5,30.2745166 44.3807119,29.2 43,29.2 Z" id="Shape"></path>
                            <path d="M68,38.8 L58,38.8 C56.6192881,38.8 55.5,39.8745166 55.5,41.2 L55.5,72.4 L70.5,72.4 L70.5,41.2 C70.5,39.8745166 69.3807119,38.8 68,38.8 Z" id="Shape"></path>
                            <polyline id="Shape" points="75.5 14.8 75.5 0.4 60.5 0.4"></polyline>
                            <path d="M75.5,0.4 L58.6666667,16.56 C56.7163184,18.4328294 53.8521382,19.1260711 51.21,18.3648 L32.18,13.4816 C29.592794,12.8186944 26.8336738,13.5296633 24.94,15.3472 L5.5,34.0096" id="Shape"></path>
                        </g>
                    </g>
                </g>
            </g>
        </g>
    </g>
</svg>