<?xml version="1.0" encoding="UTF-8"?>
<svg width="39px" height="38px" viewBox="0 0 39 38" version="1.1" xmlns="http://www.w3.org/2000/svg" xmlns:xlink="http://www.w3.org/1999/xlink">
    <!-- Generator: sketchtool 51.3 (57544) - http://www.bohemiancoding.com/sketch -->
    <title>7C23FA2A-A3A0-4503-B78A-B370E246D896</title>
    <desc>Created with sketchtool.</desc>
    <defs></defs>
    <g id="Design-–-Default" stroke="none" stroke-width="1" fill="none" fill-rule="evenodd" stroke-linecap="round" stroke-linejoin="round">
        <g id="How-it-Works-Copy" transform="translate(-739.000000, -2043.000000)" stroke="#00C7D9">
            <g id="TOP-FEATURES---SECT" transform="translate(0.000000, 1024.000000)">
                <g id="Icons" transform="translate(740.000000, 895.000000)">
                    <g id="Group-04" transform="translate(0.000000, 125.000000)">
                        <g id="ICN/Scaleable">
                            <g id="resize-expand-corner-1">
                                <path d="M17.28125,28.25 L34.34375,28.25 C35.6899441,28.25 36.78125,27.2023463 36.78125,25.91 L36.78125,2.51 C36.78125,1.21765369 35.6899441,0.17 34.34375,0.17 L9.96875,0.17 C8.62255592,0.17 7.53125,1.21765369 7.53125,2.51 L7.53125,18.89" id="Shape" stroke-width="1.5"></path>
                                <path d="M0.21875,28.25 L0.21875,25.91" id="Shape" stroke-width="1.5"></path>
                                <path d="M0.21875,21.23 C0.21875,19.9376537 1.31005592,18.89 2.65625,18.89" id="Shape" stroke-width="1.5"></path>
                                <path d="M17.28125,28.25 L17.28125,25.91" id="Shape" stroke-width="1.5"></path>
                                <path d="M17.28125,21.23 C17.28125,19.9376537 16.1899441,18.89 14.84375,18.89" id="Shape" stroke-width="1.5"></path>
                                <path d="M0.21875,32.93 C0.21875,34.2223463 1.31005592,35.27 2.65625,35.27" id="Shape" stroke-width="1.5"></path>
                                <path d="M17.28125,32.93 C17.28125,34.2223463 16.1899441,35.27 14.84375,35.27" id="Shape" stroke-width="1.5"></path>
                                <path d="M7.53125,18.89 L9.96875,18.89" id="Shape" stroke-width="1.5"></path>
                                <path d="M7.53125,35.27 L9.96875,35.27" id="Shape" stroke-width="1.5"></path>
                                <path d="M24.59375,4.85 L30.6875,4.85 C31.360597,4.85 31.90625,5.37382684 31.90625,6.02 L31.90625,11.87" id="Shape" stroke-width="1.5"></path>
                                <path d="M31.550375,5.1932 L20.9375,15.38" id="Shape" stroke-width="1.5"></path>
                            </g>
                        </g>
                    </g>
                </g>
            </g>
        </g>
    </g>
</svg>