<?xml version="1.0" encoding="UTF-8"?>
<svg width="39px" height="39px" viewBox="0 0 39 39" version="1.1" xmlns="http://www.w3.org/2000/svg" xmlns:xlink="http://www.w3.org/1999/xlink">
    <!-- Generator: sketchtool 51.3 (57544) - http://www.bohemiancoding.com/sketch -->
    <title>66A89B39-D3F0-4100-8608-A508700F2A83</title>
    <desc>Created with sketchtool.</desc>
    <defs></defs>
    <g id="Design-–-Default" stroke="none" stroke-width="1" fill="none" fill-rule="evenodd" stroke-linecap="round" stroke-linejoin="round">
        <g id="How-it-Works-Copy" transform="translate(-905.000000, -1948.000000)" stroke="#00C7D9">
            <g id="TOP-FEATURES---SECT" transform="translate(0.000000, 1024.000000)">
                <g id="Icons" transform="translate(740.000000, 895.000000)">
                    <g id="Group-02" transform="translate(166.000000, 30.000000)">
                        <g id="ICN/Secure">
                            <g id="lock-shield">
                                <rect id="Rectangle-path" stroke-width="1.5" x="9.96875" y="14.84375" width="17.0625" height="12.1875" rx="1.5"></rect>
                                <path d="M18.5,20.328125 C18.1634515,20.328125 17.890625,20.6009515 17.890625,20.9375 C17.890625,21.2740485 18.1634515,21.546875 18.5,21.546875 C18.8365485,21.546875 19.109375,21.2740485 19.109375,20.9375 C19.1098081,20.7757513 19.0457453,20.6205027 18.9313713,20.5061287 C18.8169973,20.3917547 18.6617487,20.3276919 18.5,20.328125" id="Shape" stroke-width="1.5"></path>
                                <path d="M12.40625,14.84375 L12.40625,11.1875 C12.40625,7.82201481 15.1345148,5.09375 18.5,5.09375 C21.8654852,5.09375 24.59375,7.82201481 24.59375,11.1875 L24.59375,14.84375" id="Shape" stroke-width="1.5"></path>
                                <path d="M18.5,36.78125 C7.6515,33.887125 0.21875,27.45375 0.21875,16.0625 L0.21875,0.21875 L36.78125,0.21875 L36.78125,16.0625 C36.78125,27.445625 29.359875,33.883875 18.5,36.78125 Z" id="Shape" stroke-width="1.5"></path>
                            </g>
                        </g>
                    </g>
                </g>
            </g>
        </g>
    </g>
</svg>